<svg xmlns="http://www.w3.org/2000/svg" viewBox="0 0 17.14 17.14"><title>calender</title><g id="Layer_2" data-name="Layer 2"><g id="Layer_2-2" data-name="Layer 2"><path d="M15.13,1.34h-.8V0H13V1.34H4.15V0H2.81V1.34H2a2,2,0,0,0-2,2V15.13a2,2,0,0,0,2,2H15.13a2,2,0,0,0,2-2V3.35A2,2,0,0,0,15.13,1.34ZM2,2.68h.8V4H4.15V2.68H13V4h1.34V2.68h.8a.67.67,0,0,1,.67.67V5H1.34V3.35A.67.67,0,0,1,2,2.68ZM15.13,15.8H2a.67.67,0,0,1-.67-.67V6.29H15.8v8.84A.67.67,0,0,1,15.13,15.8Z"/><rect x="2.54" y="7.7" width="1.34" height="1.34"/><rect x="5.22" y="7.7" width="1.34" height="1.34"/><rect x="7.9" y="7.7" width="1.34" height="1.34"/><rect x="10.58" y="7.7" width="1.34" height="1.34"/><rect x="13.26" y="7.7" width="1.34" height="1.34"/><rect x="2.54" y="10.38" width="1.34" height="1.34"/><rect x="5.22" y="10.38" width="1.34" height="1.34"/><rect x="7.9" y="10.38" width="1.34" height="1.34"/><rect x="10.58" y="10.38" width="1.34" height="1.34"/><rect x="2.54" y="13.06" width="1.34" height="1.34"/><rect x="5.22" y="13.06" width="1.34" height="1.34"/><rect x="7.9" y="13.06" width="1.34" height="1.34"/><rect x="10.58" y="13.06" width="1.34" height="1.34"/><rect x="13.26" y="10.38" width="1.34" height="1.34"/></g></g></svg>