<svg xmlns="http://www.w3.org/2000/svg" viewBox="0 0 190.33 79.24"><defs><style>.cls-1{fill:#ab1f23;}.cls-2{fill:#fff;}.cls-3{fill:#da1f26;}</style></defs><title>Asset 1</title><g id="Layer_2" data-name="Layer 2"><g id="Layer_1-2" data-name="Layer 1"><polygon class="cls-1" points="42.38 38.49 7.13 32.24 0 70.62 35.38 76.75 42.38 38.49"/><polygon class="cls-2" points="38.96 41.31 9.46 36.12 3.96 65 33.21 70.25 38.96 41.31"/><polygon class="cls-3" points="14 40.99 49.25 34.74 56.38 73.12 21 79.25 14 40.99"/><polygon class="cls-2" points="17.42 43.81 46.92 38.62 52.42 67.5 23.17 72.75 17.42 43.81"/><path d="M78.34,38.67a3.25,3.25,0,0,1,.39,1.67,4,4,0,0,1-.37,1.9,3.43,3.43,0,0,1-1.16,1.22q-3.12,2.05-9.94,6.77-2.06,10.94-5.34,17.23t-8.3,6.29a6,6,0,0,1-4.39-1.66,5.85,5.85,0,0,1-1.69-4.36,12.47,12.47,0,0,1,1.11-5,22.85,22.85,0,0,1,4.15-5.87,69.15,69.15,0,0,1,8.59-7.61l.16-1A21.21,21.21,0,0,1,53.36,50a22.62,22.62,0,0,1-10.42-2.3,16.74,16.74,0,0,1-7-6.53,19.12,19.12,0,0,1-2.48-9.83,30.79,30.79,0,0,1,3-13.83,22.42,22.42,0,0,1,8.17-9.3A21.3,21.3,0,0,1,56.26,4.86q6.2,0,9.28,2.89a9.93,9.93,0,0,1,3.09,7.63,9.57,9.57,0,0,1-1.13,5A3.9,3.9,0,0,1,62,21.57a2.27,2.27,0,0,1-.88-1.9,11.88,11.88,0,0,1,.22-1.8,11.84,11.84,0,0,0,.31-2.33,4.37,4.37,0,0,0-1.35-3.43c-.89-.81-2.4-1.22-4.52-1.22a12.58,12.58,0,0,0-7.16,2.22,15.41,15.41,0,0,0-5.31,6.64,25.41,25.41,0,0,0-2,10.6q0,6.34,3.46,9.8t10,3.47A19.94,19.94,0,0,0,62.34,42l.74-6.45H57.69a3.26,3.26,0,0,1-2.27-.72,3,3,0,0,1-.8-2.35,3.25,3.25,0,0,1,.8-2.32,2.74,2.74,0,0,1,2.11-.85h9.89a2.63,2.63,0,0,1,1.93.77A2.56,2.56,0,0,1,70,32.25c-.11,1.13-.46,3.68-1.06,7.67l-.58,4q4.23-3.16,7.72-5.49A2.31,2.31,0,0,1,77.25,38,1.23,1.23,0,0,1,78.34,38.67ZM57.22,65.5a41,41,0,0,0,3.06-10,29.88,29.88,0,0,0-5.79,6.21,9.45,9.45,0,0,0-1.77,4.89c0,1.38.49,2.06,1.48,2.06S56.12,67.58,57.22,65.5Z"/><path d="M95.94,38.54a3.33,3.33,0,0,1,.4,1.75,4.83,4.83,0,0,1-1,3.27,22.39,22.39,0,0,1-4.94,4.6,10.58,10.58,0,0,1-6,1.8,7.33,7.33,0,0,1-6.9-4.23,23.24,23.24,0,0,1-2.25-10.94,75.18,75.18,0,0,1,1.66-14.7A50.11,50.11,0,0,1,81.77,5.92Q85,0,89.52,0a4.5,4.5,0,0,1,4,2.35A12.91,12.91,0,0,1,95,9.09q0,6.3-3.49,14.6A80.77,80.77,0,0,1,82,40.13a6.13,6.13,0,0,0,1.22,3.09,2.85,2.85,0,0,0,2.22.93,6.11,6.11,0,0,0,3.8-1.25,28,28,0,0,0,4.18-4.25,1.83,1.83,0,0,1,1.43-.74A1.22,1.22,0,0,1,95.94,38.54ZM85.6,9.62a72.07,72.07,0,0,0-2.69,10.89A78.38,78.38,0,0,0,81.64,33a68.19,68.19,0,0,0,6-12.4A34,34,0,0,0,89.83,9.25c0-2.68-.49-4-1.48-4C87.54,5.23,86.63,6.7,85.6,9.62Z"/><path d="M92.11,47.58a9.46,9.46,0,0,1-2-6.24,17.12,17.12,0,0,1,2-8,16.77,16.77,0,0,1,5.2-6.08,11.78,11.78,0,0,1,6.9-2.3,2,2,0,0,1,1.56.45,3.67,3.67,0,0,1,.66,1.62,12.53,12.53,0,0,1,2.33-.22c1.73,0,2.59.62,2.59,1.85a38.92,38.92,0,0,1-.79,5.29,51.58,51.58,0,0,0-1.22,8.46,1.9,1.9,0,0,0,.4,1.27,1.27,1.27,0,0,0,1,.48,4,4,0,0,0,2.43-1.3,44.49,44.49,0,0,0,3.86-4.2,1.83,1.83,0,0,1,1.43-.74,1.21,1.21,0,0,1,1.08.63,3.24,3.24,0,0,1,.4,1.75,4.83,4.83,0,0,1-1,3.27,26.31,26.31,0,0,1-4.6,4.55,7.86,7.86,0,0,1-4.7,1.85,5,5,0,0,1-3.2-1.19,7.21,7.21,0,0,1-2.19-3.25Q101.51,50,97.34,50A6.4,6.4,0,0,1,92.11,47.58Zm9.35-4.33A9,9,0,0,0,103,39.6l2-9.73a6.39,6.39,0,0,0-4.09,1.67,11.08,11.08,0,0,0-3,4.25,14.33,14.33,0,0,0-1.11,5.61,3.75,3.75,0,0,0,.66,2.43,2.24,2.24,0,0,0,1.82.79A2.9,2.9,0,0,0,101.46,43.25Z"/><path d="M117,47a10.59,10.59,0,0,1-2.88-7.75,16.05,16.05,0,0,1,1.69-7.51,13,13,0,0,1,4.39-5,10.3,10.3,0,0,1,5.66-1.74,5.89,5.89,0,0,1,4.52,1.72A6.2,6.2,0,0,1,132,31.19,6.81,6.81,0,0,1,131,35a2.93,2.93,0,0,1-2.56,1.53,2.51,2.51,0,0,1-1.61-.48,1.55,1.55,0,0,1-.61-1.32,3.89,3.89,0,0,1,.1-.84c.08-.32.13-.55.16-.69a4.61,4.61,0,0,0,.27-1.48,1.5,1.5,0,0,0-.35-1.06,1.24,1.24,0,0,0-1-.37,3.18,3.18,0,0,0-2.28,1.08,8,8,0,0,0-1.69,2.94,12.54,12.54,0,0,0-.63,4.07q0,6.14,5.34,6.13A9.46,9.46,0,0,0,130.89,43a19.09,19.09,0,0,0,4.94-4.36,1.83,1.83,0,0,1,1.43-.74,1.22,1.22,0,0,1,1.08.63,3.33,3.33,0,0,1,.4,1.75,5.09,5.09,0,0,1-1,3.27,17,17,0,0,1-5.95,4.74A15.33,15.33,0,0,1,125.1,50Q119.91,50,117,47Z"/><path d="M135.27,47.53a11.8,11.8,0,0,1-1.56-6.45,40.25,40.25,0,0,1,.61-6.11A59,59,0,0,1,135.88,28a4.53,4.53,0,0,1,1.27-2.33,4.08,4.08,0,0,1,2.54-.63c1.8,0,2.69.6,2.69,1.8a41.21,41.21,0,0,1-1,6.13,45.33,45.33,0,0,0-1.27,7.88,5.58,5.58,0,0,0,.42,2.43,1.49,1.49,0,0,0,1.43.85,4,4,0,0,0,2.38-1.33,48.17,48.17,0,0,0,3.81-4.17,1.83,1.83,0,0,1,1.42-.74,1.24,1.24,0,0,1,1.09.63,3.34,3.34,0,0,1,.39,1.75,4.83,4.83,0,0,1-1,3.27q-5.24,6.4-9.78,6.4A5.5,5.5,0,0,1,135.27,47.53Zm2.09-27a3.74,3.74,0,0,1-1.11-2.88,3.88,3.88,0,0,1,1.46-3.09,5.35,5.35,0,0,1,3.62-1.25,5,5,0,0,1,3.17.95,3.25,3.25,0,0,1,1.22,2.7,4.3,4.3,0,0,1-1.38,3.36,5.23,5.23,0,0,1-3.65,1.24A4.73,4.73,0,0,1,137.36,20.54Z"/><path d="M170.75,38.54a3.34,3.34,0,0,1,.39,1.75,4.83,4.83,0,0,1-1,3.27A19.36,19.36,0,0,1,164.61,48,15.3,15.3,0,0,1,157,50q-5.56,0-8.62-3a11,11,0,0,1-3.07-8.25,15.29,15.29,0,0,1,1.53-6.79,12.55,12.55,0,0,1,4.26-5,10.75,10.75,0,0,1,6.16-1.85,6.75,6.75,0,0,1,4.92,1.82A6.66,6.66,0,0,1,164,31.83a8.55,8.55,0,0,1-2.62,6.26q-2.61,2.63-8.86,4.15,1.32,2.43,5,2.43A11.59,11.59,0,0,0,163,43a18.08,18.08,0,0,0,5.26-4.36,1.82,1.82,0,0,1,1.42-.74A1.24,1.24,0,0,1,170.75,38.54Zm-17.71-6a10.6,10.6,0,0,0-1.35,5.5v.11a12,12,0,0,0,4.91-2.22,4.36,4.36,0,0,0,1.8-3.44,2.28,2.28,0,0,0-.55-1.61,1.92,1.92,0,0,0-1.51-.61A3.88,3.88,0,0,0,153,32.51Z"/><path d="M189.52,33.12a2.8,2.8,0,0,1,.81,2,4,4,0,0,1-.31,1.48,9.07,9.07,0,0,1-2.38,3.28,5.07,5.07,0,0,1-3.39,1.32,3.37,3.37,0,0,1-2.51-1.06,3.94,3.94,0,0,1-1-2.85c0-.67,0-1.4.11-2.17a10.93,10.93,0,0,0,.1-1.17,1,1,0,0,0-.18-.63.58.58,0,0,0-.45-.21q-.73,0-2,1.77a26.55,26.55,0,0,0-2.54,4.68,38.71,38.71,0,0,0-2.06,6.13,8.42,8.42,0,0,1-1.32,3.38,3,3,0,0,1-2.43.85,2.89,2.89,0,0,1-2.83-2.11,20.19,20.19,0,0,1-.82-6.77,42.87,42.87,0,0,1,2-13.06,3.94,3.94,0,0,1,1.56-2.25,5.53,5.53,0,0,1,3-.71,3.1,3.1,0,0,1,1.48.26,1.11,1.11,0,0,1,.42,1,21,21,0,0,1-.79,3.81c-.36,1.4-.64,2.64-.85,3.7a37.71,37.71,0,0,0-.53,3.91,30.07,30.07,0,0,1,3.91-7.4,15.55,15.55,0,0,1,4.23-4.07,7.58,7.58,0,0,1,3.76-1.22,3.08,3.08,0,0,1,2.35.87,3.65,3.65,0,0,1,.82,2.57,23.7,23.7,0,0,1-.58,3.8h.47A2.74,2.74,0,0,1,189.52,33.12Z"/><path d="M82.35,57a5.34,5.34,0,0,1,3.31.92,3.23,3.23,0,0,1,1.19,2.74,2.52,2.52,0,0,1-.57,1.61,3.38,3.38,0,0,1-1.51,1.05,3.1,3.1,0,0,1,1.92,1.2,3.52,3.52,0,0,1,.71,2.18,3.42,3.42,0,0,1-1.21,2.83,5,5,0,0,1-3.26,1h-6.5V69.36l1.51-.26V58.46l-1.51-.26V57h5.92Zm-2.58,5.74h3a2.35,2.35,0,0,0,1.6-.58A2.3,2.3,0,0,0,84.34,59a3.17,3.17,0,0,0-2-.54H79.77Zm0,1.43V69.1h3.16a2.78,2.78,0,0,0,1.94-.62,2.22,2.22,0,0,0,.69-1.75A2.74,2.74,0,0,0,85,64.87a2.21,2.21,0,0,0-1.78-.68Z"/><path d="M88.83,57.23V56.06h3.34v13l1.51.26v1.17H88.83V69.36l1.51-.26V57.49Z"/><path d="M102.24,69.05a3.24,3.24,0,0,1-2.94,1.67,3.2,3.2,0,0,1-2.55-1,4.89,4.89,0,0,1-.92-3.27V61.93l-1.15-.26V60.49h3v5.94a3.81,3.81,0,0,0,.47,2.21,1.78,1.78,0,0,0,1.48.6,3,3,0,0,0,1.61-.39,2.57,2.57,0,0,0,1-1.12v-5.8l-1.35-.26V60.49H104V69.1l1.15.26v1.17h-2.8Z"/><path d="M111.19,70.72a4.25,4.25,0,0,1-3.34-1.39,5.24,5.24,0,0,1-1.24-3.62V65.3a5.16,5.16,0,0,1,1.28-3.57,3.91,3.91,0,0,1,3-1.42A3.77,3.77,0,0,1,114,61.53a4.87,4.87,0,0,1,1,3.27v1.14H108.5l0,0a4,4,0,0,0,.73,2.38,2.35,2.35,0,0,0,2,.94,4.47,4.47,0,0,0,1.62-.27A3.76,3.76,0,0,0,114,68.3l.72,1.19a4.31,4.31,0,0,1-1.43.88A5.85,5.85,0,0,1,111.19,70.72Zm-.28-9a2,2,0,0,0-1.57.78,3.67,3.67,0,0,0-.8,1.94l0,.05h4.63v-.24a2.76,2.76,0,0,0-.58-1.8A2,2,0,0,0,110.91,61.74Z"/><path d="M121.37,70.53V69.36l1.51-.26V58.46l-1.51-.26V57h4.85V58.2l-1.51.26V69.1h4.7l.14-1.55h1.55v3Z"/><path d="M132.66,69.36l1.52-.26V61.93l-1.52-.26V60.49H136V69.1l1.52.26v1.17h-4.86ZM136,57.92h-1.82V56.06H136Z"/><path d="M138.54,69.36l1.52-.26V61.93l-1.52-.26V60.49h3.16l.12,1.31a3.28,3.28,0,0,1,1.24-1.1,3.85,3.85,0,0,1,1.77-.39,3.11,3.11,0,0,1,1.72.46,2.84,2.84,0,0,1,1.08,1.39,3.62,3.62,0,0,1,1.25-1.35,3.25,3.25,0,0,1,1.82-.5,3,3,0,0,1,2.43,1,4.83,4.83,0,0,1,.89,3.17V69.1l1.51.26v1.17h-4.86V69.36l1.51-.26V64.51a3.33,3.33,0,0,0-.51-2.1,1.85,1.85,0,0,0-1.51-.62,1.93,1.93,0,0,0-1.54.67,3,3,0,0,0-.67,1.7V69.1l1.51.26v1.17h-4.85V69.36l1.51-.26V64.51a3.32,3.32,0,0,0-.52-2.07,1.85,1.85,0,0,0-1.52-.65,2.51,2.51,0,0,0-1.37.34,2.26,2.26,0,0,0-.83,1v6l1.52.26v1.17h-4.86Z"/><path d="M156.86,69.36l1.51-.26V61.93l-1.51-.26V60.49h3.34V69.1l1.51.26v1.17h-4.85Zm3.34-11.44h-1.83V56.06h1.83Z"/><path d="M166.29,58.07v2.42h1.9v1.36h-1.9v6.09a1.33,1.33,0,0,0,.3,1,1,1,0,0,0,.77.29,3.62,3.62,0,0,0,.54,0l.51-.09.25,1.25a2.13,2.13,0,0,1-.76.28,4.92,4.92,0,0,1-1,.1,2.37,2.37,0,0,1-1.78-.67,3,3,0,0,1-.66-2.11V61.85h-1.58V60.49h1.58V58.07Z"/><path d="M174.64,70.72a4.22,4.22,0,0,1-3.33-1.39,5.24,5.24,0,0,1-1.24-3.62V65.3a5.11,5.11,0,0,1,1.28-3.57,3.89,3.89,0,0,1,3-1.42,3.79,3.79,0,0,1,3.07,1.22,4.86,4.86,0,0,1,1,3.27v1.14H172l0,0a4,4,0,0,0,.74,2.38,2.34,2.34,0,0,0,2,.94,4.53,4.53,0,0,0,1.63-.27,3.76,3.76,0,0,0,1.21-.73l.72,1.19a4.41,4.41,0,0,1-1.43.88A5.86,5.86,0,0,1,174.64,70.72Zm-.28-9a2,2,0,0,0-1.56.78,3.59,3.59,0,0,0-.8,1.94l0,.05h4.63v-.24a2.82,2.82,0,0,0-.58-1.8A2,2,0,0,0,174.36,61.74Z"/><path d="M187,69.33a3.21,3.21,0,0,1-1.2,1,3.64,3.64,0,0,1-1.65.35,3.42,3.42,0,0,1-2.87-1.33,5.52,5.52,0,0,1-1-3.5V65.7a6.7,6.7,0,0,1,1-3.91,3.32,3.32,0,0,1,2.89-1.48,3.55,3.55,0,0,1,1.57.33,3.11,3.11,0,0,1,1.16,1v-4.1l-1.51-.26V56.06h3.34v13l1.51.26v1.17h-3.09Zm-4.93-3.44a4.29,4.29,0,0,0,.62,2.43,2.18,2.18,0,0,0,1.92.92,2.41,2.41,0,0,0,1.38-.37,2.85,2.85,0,0,0,.91-1.05V63.16a2.84,2.84,0,0,0-.91-1,2.41,2.41,0,0,0-1.36-.37,2.06,2.06,0,0,0-1.93,1.09,5.56,5.56,0,0,0-.63,2.82Z"/></g></g></svg>