<?xml version="1.0" encoding="UTF-8"?><svg xmlns="http://www.w3.org/2000/svg" viewBox="0 0 1366 768"><defs><style>.x{fill:#4ebfab;}.y{fill:#f2cf66;}.a`{fill:#f23535;}.aa{fill:none;}.ab{fill:#ee7266;}.ac{fill:#f2b705;}.ad{fill:#3476d6;}.ae{fill:#fad2ce;}.af{fill:#abd6c3;}</style></defs><g id="a"/><g id="b"><g id="c"><g><g id="d"><g id="e"><path class="a`" d="M271,159.69c-.17,.71-.26,1.46-.53,2.14-1.12,2.77-3.17,4.46-6.12,4.89-4.09,.59-7.71-1.98-8.66-6.02-.71-3.02,.73-6.47,3.37-8.12,1.04-.65,2.15-1.06,3.37-1.2,.07,0,.14-.03,.21-.05h1.27c.21,.04,.41,.08,.62,.12,2.87,.54,4.87,2.18,5.95,4.88,.27,.67,.36,1.4,.53,2.11v1.27h0Zm-7.74,5.21c3.23,0,5.85-2.63,5.84-5.85,0-3.2-2.63-5.82-5.83-5.83-3.22,0-5.85,2.62-5.85,5.84,0,3.23,2.62,5.84,5.84,5.84Z"/></g></g><g id="f"><g id="g"><path class="ae" d="M940,69.4c-.17,.72-.26,1.47-.53,2.14-1.12,2.78-3.18,4.48-6.14,4.9-4.1,.59-7.74-1.99-8.69-6.04-.71-3.03,.73-6.49,3.38-8.15,1.04-.65,2.16-1.07,3.38-1.2,.07,0,.14-.03,.21-.05h1.27c.21,.04,.41,.08,.62,.12,2.88,.54,4.88,2.18,5.97,4.9,.27,.67,.36,1.41,.53,2.11v1.27h0Zm-7.77,5.23c3.24,0,5.87-2.64,5.86-5.87,0-3.22-2.64-5.84-5.85-5.85-3.23,0-5.87,2.63-5.87,5.86,0,3.24,2.63,5.86,5.86,5.86Z"/></g></g><g id="h"><g id="i"><path class="ab" d="M455.62,648.43c.07-.1,.14-.2,.21-.31,1.33-2.3,2.66-4.6,3.98-6.9,.12-.21,.25-.3,.51-.3,2.69,0,5.39,0,8.08,0,.24,0,.36,.08,.48,.29,1.34,2.33,2.68,4.66,4.04,6.99,.13,.22,.11,.37,0,.59-1.4,2.41-2.8,4.84-4.19,7.26h-8.77c-.03-.07-.04-.15-.08-.22-1.36-2.36-2.72-4.72-4.09-7.08-.04-.06-.1-.12-.15-.17v-.14Zm8.7,5.55c.96,0,1.92,0,2.88,0,.23,0,.36-.06,.48-.27,.95-1.67,1.91-3.32,2.88-4.98,.11-.2,.1-.33,0-.52-.96-1.65-1.91-3.29-2.86-4.95-.12-.22-.26-.3-.51-.29-1.9,.01-3.79,0-5.69,0-.23,0-.37,.06-.49,.27-.95,1.67-1.91,3.33-2.87,4.98-.1,.18-.12,.31-.01,.49,.97,1.67,1.94,3.33,2.89,5.01,.11,.2,.24,.26,.46,.26,.95-.01,1.9,0,2.84,0h0Z"/></g></g><g id="j"><g id="k"><path class="y" d="M746.71,214.42c.08-.11,.16-.22,.23-.34,1.47-2.54,2.94-5.08,4.4-7.63,.13-.24,.28-.33,.56-.33,2.98,.01,5.95,.01,8.93,0,.27,0,.4,.09,.53,.32,1.48,2.58,2.96,5.15,4.46,7.72,.14,.24,.13,.41,0,.65-1.55,2.67-3.09,5.34-4.63,8.02h-9.69c-.03-.08-.05-.17-.09-.24-1.5-2.61-3.01-5.21-4.52-7.82-.04-.07-.11-.13-.16-.19v-.15Zm9.61,6.13c1.06,0,2.12,0,3.18,0,.25,0,.4-.07,.53-.3,1.05-1.84,2.11-3.67,3.18-5.5,.13-.22,.12-.37,0-.58-1.06-1.82-2.12-3.64-3.16-5.47-.14-.24-.29-.33-.56-.33-2.09,.01-4.19,0-6.28,0-.25,0-.4,.06-.54,.3-1.05,1.84-2.11,3.67-3.17,5.5-.11,.2-.13,.34-.01,.55,1.07,1.84,2.14,3.68,3.19,5.54,.13,.22,.26,.29,.51,.28,1.05-.01,2.09,0,3.14,0h0Z"/></g></g><g id="l"><g id="m"><path class="ac" d="M1252.64,666.41v-17.3h17.3v17.3h-17.3Zm14.99-14.98h-12.66v12.66h12.66v-12.66Z"/></g></g><g id="n"><g id="o"><path class="x" d="M127.69,529.52c.05,.11,.09,.23,.15,.34,2.65,4.67,5.3,9.34,7.95,14,.06,.11,.12,.22,.2,.37h-16.36c-.12,0-.23,0-.35-.01v-.06c.07-.09,.14-.17,.2-.27,2.19-3.85,4.37-7.7,6.56-11.55,.53-.94,1.05-1.88,1.58-2.82h.06Zm5.03,12.79c-1.7-2.99-3.37-5.94-5.07-8.93-1.7,2.99-3.37,5.94-5.07,8.93h10.14Z"/></g></g><g id="p"><g id="q"><path class="af" d="M1054.69,389.52c.05,.11,.09,.23,.15,.34,2.65,4.67,5.3,9.34,7.95,14,.06,.11,.12,.22,.2,.37h-16.36c-.12,0-.23,0-.35-.01v-.06c.07-.09,.14-.17,.2-.27,2.19-3.85,4.37-7.7,6.56-11.55,.53-.94,1.05-1.88,1.58-2.82h.06Zm5.03,12.79c-1.7-2.99-3.37-5.94-5.07-8.93-1.7,2.99-3.37,5.94-5.07,8.93h10.14Z"/></g></g><g id="r"><g id="s"><path class="ad" d="M879.51,640.93c.02-.09,.04-.18,.07-.26,.16-.59,.8-.89,1.37-.66,.57,.23,.77,.17,1.12-.34,.29-.43,.58-.85,.87-1.27,.85-1.22,2.31-1.57,3.61-.84,.49,.27,.97,.55,1.45,.82,.45,.25,.76,.18,1.06-.25,.31-.45,.61-.89,.92-1.34,.84-1.22,2.29-1.57,3.59-.87,.48,.26,.95,.55,1.43,.82,.47,.27,.77,.2,1.08-.25,.29-.43,.57-.85,.86-1.28,.87-1.27,2.35-1.62,3.69-.86,.48,.27,.97,.55,1.45,.82,.35,.2,.67,.13,.92-.17,.52-.62,1.24-.6,1.72,.06,.01,.02,.04,.03,.06,.04l.1,.44c-.18,.84-.98,1.55-1.91,1.72-.64,.11-1.24,.02-1.81-.29-.51-.28-1.01-.58-1.52-.86-.45-.25-.75-.17-1.04,.25-.29,.43-.58,.87-.88,1.3-.87,1.27-2.36,1.61-3.69,.85-.46-.26-.92-.53-1.38-.79-.41-.24-.73-.17-1.01,.22-.32,.46-.63,.94-.96,1.4-.88,1.23-2.29,1.55-3.62,.83-.5-.27-.98-.56-1.48-.84-.41-.23-.73-.15-1,.24-.35,.5-.69,1.02-1.05,1.52-.79,1.08-2.23,1.4-3.41,.76-.2-.11-.34-.31-.51-.47l-.1-.44Z"/></g></g><g id="t"><g id="u"><path class="ab" d="M1212.51,161.93c.02-.09,.04-.18,.07-.26,.16-.59,.8-.89,1.37-.66,.57,.23,.77,.17,1.12-.34,.29-.43,.58-.85,.87-1.27,.85-1.22,2.31-1.57,3.61-.84,.49,.27,.97,.55,1.45,.82,.45,.25,.76,.18,1.06-.25,.31-.45,.61-.89,.92-1.34,.84-1.22,2.29-1.57,3.59-.87,.48,.26,.95,.55,1.43,.82,.47,.27,.77,.2,1.08-.25,.29-.43,.57-.85,.86-1.28,.87-1.27,2.35-1.62,3.69-.86,.48,.27,.97,.55,1.45,.82,.35,.2,.67,.13,.92-.17,.52-.62,1.24-.6,1.72,.06,.01,.02,.04,.03,.06,.04l.1,.44c-.18,.84-.98,1.55-1.91,1.72-.64,.11-1.24,.02-1.81-.29-.51-.28-1.01-.58-1.52-.86-.45-.25-.75-.17-1.04,.25-.29,.43-.58,.87-.88,1.3-.87,1.27-2.36,1.61-3.69,.85-.46-.26-.92-.53-1.38-.79-.41-.24-.73-.17-1.01,.22-.32,.46-.63,.94-.96,1.4-.88,1.23-2.29,1.55-3.62,.83-.5-.27-.98-.56-1.48-.84-.41-.23-.73-.15-1,.24-.35,.5-.69,1.02-1.05,1.52-.79,1.08-2.23,1.4-3.41,.76-.2-.11-.34-.31-.51-.47l-.1-.44Z"/></g></g><g id="v"><g id="w"><path class="af" d="M35.33,67.24c.11-.03,.21-.06,.32-.08,.72-.17,1.41,.33,1.49,1.07,.08,.74,.26,.91,1.01,.99,.62,.06,1.24,.13,1.85,.19,1.79,.19,3,1.55,2.98,3.35,0,.67-.03,1.34-.04,2.02,0,.62,.25,.91,.88,.98,.65,.07,1.3,.13,1.95,.2,1.78,.19,2.99,1.52,3,3.31,0,.66-.03,1.32-.05,1.99-.01,.65,.24,.94,.89,1,.62,.06,1.24,.11,1.86,.18,1.85,.19,3.07,1.56,3.04,3.42-.01,.67-.03,1.34-.04,2.02,0,.49,.25,.79,.71,.88,.96,.19,1.35,.97,.93,1.86-.01,.02-.01,.06-.01,.09l-.41,.37c-1,.3-2.21-.14-2.92-1.03-.49-.61-.74-1.31-.73-2.09,0-.7,.03-1.41,.03-2.11,0-.62-.25-.9-.86-.96-.63-.06-1.26-.12-1.89-.18-1.84-.19-3.07-1.58-3.04-3.42,.01-.64,.03-1.28,.04-1.93,.01-.57-.25-.87-.82-.94-.68-.08-1.36-.13-2.04-.21-1.81-.22-2.97-1.53-2.97-3.36,0-.68,.03-1.37,.03-2.05,0-.57-.26-.86-.83-.93-.74-.08-1.48-.14-2.22-.24-1.61-.22-2.78-1.56-2.77-3.18,0-.27,.13-.54,.2-.81l.41-.37Z"/></g></g><rect class="aa" width="1366" height="768"/></g></g></g></svg>