<svg xmlns="http://www.w3.org/2000/svg" viewBox="0 0 32 32"><defs><style>.cls-1{fill:#414042;}.cls-2{fill:none;}</style></defs><g id="Layer_2" data-name="Layer 2"><g id="Layer_1-2" data-name="Layer 1"><path class="cls-1" d="M17,14.82v0l0,0Z"/><rect class="cls-2" width="32" height="32"/><rect x="8.2" y="13.33" width="3.43" height="10.32"/><path d="M9.92,11.92h0A1.77,1.77,0,0,1,8,10.14,1.79,1.79,0,0,1,9.94,8.35a1.79,1.79,0,1,1,0,3.57Z"/><path d="M24,23.65H20.57V18.13c0-1.39-.5-2.34-1.74-2.34a1.89,1.89,0,0,0-1.76,1.26,2.32,2.32,0,0,0-.11.83v5.77H13.53s0-9.35,0-10.32H17v1.46a3.41,3.41,0,0,1,3.09-1.7c2.26,0,3.95,1.47,3.95,4.64Z"/></g></g></svg>