<svg xmlns="http://www.w3.org/2000/svg" viewBox="0 0 2250.19 318.48"><defs><style>.cls-1{fill:#fff;}</style></defs><g id="Layer_2" data-name="Layer 2"><g id="Layer_1-2" data-name="Layer 1"><path class="cls-1" d="M168.74,0c83.65,4.86,150,74.29,150,159.24s-66.34,154.38-150,159.24V0ZM37.32,261.82,150,149.05v67.29l-76.94,77a160.21,160.21,0,0,1-35.73-31.53ZM90,302.9l60-60v75.6A158.25,158.25,0,0,1,90,302.9ZM26,246.61A158.81,158.81,0,0,1,5.27,200.08L150,55.22v67.29L26,246.61Zm-25-68.86A161.57,161.57,0,0,1,0,159.24C0,74.29,66.34,4.86,150,0V28.68L1.06,177.75Z"/><path class="cls-1" d="M453,200.11h6.23l4.95-11.88,36.9.14,9.05,20.52,26-.14-44.54-98.93h-9.05L438.3,208.75h27.57l4.81-11.33h28.14l-2.12-4.81H467.57L463,203.79H446.22l39.16-89.16h3.4l39.31,89.16h-15l-9.05-20.24H460.22L453,200.11Zm16.83-24.91L487.08,134l29,65.95h5.8l-34.79-77.56-25.45,57.18h41L487.08,145.2l-10.74,25.9h5.51l5.23-12.88,7.78,17ZM567,109.68h14.56v89.87h-5.23V114.77h-4.24v89H618.6V190.21H595.55v-5.1h28.14v23.78H567V109.68Zm19.23,0h5.09v84.63h22.76v5.24H586.22V109.68Zm100.83,18.54h33.8V114.77h-60.1v4.39H716v5.09H655.66V109.68h70.28v23.63h-33.8v66.24h-5.09V128.22Zm-9.47,5.09H655.66v-5.09h27v75.43h14.14v-66h5.09v71.19H677.58V133.31Zm77.93-23.21h5.09v93.69h54.15V189.64H774.88V176.05H780v8.5h39.87v24.34H755.51V110.1Zm9.61,0h54v24.2H785.2v-5.09h28.85v-14H770.21v40.9h32.95v5.09h-38V110.1Zm0,55.62h43V151.57H774.88V119.44H809.1v5.1H780v21.93H813.2v24.35h-43v23.49h39.6v5.1H765.12V165.72Zm154.71,38.07H903.57l-19.51-36.37-13.15.14v36.23H856.63v-94h-5.09v99.07h24.6V172.52h5l19.37,36.37h27.85L908.8,172.37l-4.66,1.84,15.69,29.58Zm-33.65-88.88c20.5,0,32.1,9.2,32.1,26,0,15.29-9.2,24.63-25.17,26.33l-3.82.42L907,200.4h5.8l-15.41-28.73c17-3,26-13.31,26-30.72a33.94,33.94,0,0,0-3.68-15.71c-5.66-10-17.25-15.42-33.51-15.42h-25v90.43h5.09V114.91ZM885.05,163c19.37,0,28.56-6.65,28.56-21.37,0-14-9.62-21.93-25-21.93H870.77v14.86H887c7.49,0,11.31,2.12,11.31,6.36,0,5-4.67,7.36-14.14,7.36H876v-8.77h-5.23v13.87H884.2c12.58,0,19.23-4.39,19.23-12.46a9.21,9.21,0,0,0-1.84-6.08c-2.4-3.54-7.21-5.24-14.56-5.24H876v-4.81h12.58c12.59,0,19.94,6.09,19.94,16.84,0,11.18-7.5,16.42-23.47,16.42H870.91V163Zm138.16,5.52-57.83-58.73h-7.07l70,71.19V119.73h-5.09v48.82Zm-4.67-11.32V114.77H1033v89h-2.41l-.56-.56-64.76-65.67v71.33h14.84V167.14l-5.23-5.38v42h-4.52V150L1029,208.89h9V109.82h-24.61v41.89l5.09,5.52Zm-58,51.66v-82.8l67.73,68.79v-7.5l-72.68-73.46v95Zm118.51-8.78h6.22l5-11.88,36.91.14,9,20.52,26-.14-44.54-98.93h-9l-44.26,98.93H1092l4.81-11.33h28.13l-2.12-4.81h-29.13l-4.52,11.18h-16.83l39.17-89.16h3.39l39.31,89.16h-15l-9.05-20.24h-43.83l-7.21,16.56Zm16.83-24.91L1113.16,134l29,65.95h5.8l-34.78-77.56-25.45,57.18h41l-15.55-34.39-10.75,25.9h5.52l5.23-12.88,7.77,17Zm129.68-47h33.79V114.77h-60.09v4.39h55.28v5.09H1194.2V109.68h70.27v23.63h-33.79v66.24h-5.09V128.22Zm-9.48,5.09H1194.2v-5.09h27v75.43h14.14v-66h5.09v71.19h-24.32V133.31Zm79.2-23.49h14.85v89.59h-5.09v-84.5h-4.67v88.88h14.28v-94h5.1v99.07h-24.47V109.82Zm62.94,5.23h16l24.6,51.24,3-6.09-24.32-50.38h-27.57l47.65,99.07H1400l45.38-93.84h5l-45.53,93.84h5.8l48.08-99.07H1442.1L1398.83,199l-40.58-83.93ZM1399,189.22l38.31-79.4h-5.93L1399,177.19l-27.86-57.61h-5.8L1399,189.22Zm88.53-79.12h5.09v93.69h54.15V189.64h-39.87V176.05H1512v8.5h39.87v24.34h-64.33V110.1Zm9.61,0h54v24.2H1517.2v-5.09h28.85v-14h-43.84v40.9h33v5.09h-38V110.1Zm0,55.62h43V151.57h-33.23V119.44h34.22v5.1H1512v21.93h33.23v24.35h-43v23.49h39.6v5.1h-44.69V165.72Zm175.51,34.39h6.23l4.94-11.88,36.91.14,9,20.52,26-.14-44.54-98.93h-9l-44.26,98.93h27.57l4.81-11.33h28.14l-2.12-4.81H1687.2l-4.53,11.18h-16.82L1705,114.63h3.4l39.31,89.16h-15l-9-20.24h-43.83l-7.22,16.56Zm16.83-24.91L1706.71,134l29,65.95h5.8l-34.79-77.56-25.45,57.18h41l-15.56-34.39L1696,171.1h5.52l5.23-12.88,7.78,17Zm151,1.42c-8.91,5.8-13.29,7.5-19.37,7.5a23.06,23.06,0,0,1-12-3.4c-7.49-4.52-12.58-12.73-12.58-21.23a24.64,24.64,0,0,1,24.6-24.76,23.8,23.8,0,0,1,14.28,4.53,12.31,12.31,0,0,1,2.55,2l2.12,1.55,9.47-11.18-1.55-1.55a22.55,22.55,0,0,0-3.82-2.83,37,37,0,0,0-23.05-7.65A40.07,40.07,0,0,0,1793,131.19c-7.49,7.92-11.73,17.69-11.73,28.3a40.08,40.08,0,0,0,39.87,39.92,38.86,38.86,0,0,0,21.35-6.37l-2.83-4.25a32.74,32.74,0,0,1-18.52,5.66,35,35,0,0,1-34.78-35,35,35,0,0,1,34.78-34.81c6.93,0,13.57,2.12,20.22,6.51l1.13,1-3.11,3.54a2.31,2.31,0,0,1-1-.57,30.31,30.31,0,0,0-17.25-5.38,29.11,29.11,0,0,0-14.85,3.82,30.89,30.89,0,0,0-14.84,25.9,29.14,29.14,0,0,0,4.1,14.58c5.51,9.48,15.55,15.29,25.59,15.29,6.65,0,12-2,20.08-7.08l7.92,11.75c-10.33,6.79-18.39,9.62-28,9.62a43,43,0,0,1-22.06-5.94,44.19,44.19,0,0,1,22.06-82.51A43.57,43.57,0,0,1,1851,126.8l.85.71,1.13,1.13,3.54-3.68-2-2a50.25,50.25,0,0,0-33.37-12.74,47.81,47.81,0,0,0-24.6,6.51,49.91,49.91,0,0,0-24.75,42.74,47.34,47.34,0,0,0,6.79,24.49,49.33,49.33,0,0,0,42.56,24.91c11.17,0,20.5-3.54,33.09-12.17l2-1.28-13.44-20.24-2.26,1.42Zm105.5,0c-8.91,5.8-13.29,7.5-19.37,7.5a23.06,23.06,0,0,1-12-3.4C1907.11,176.2,1902,168,1902,159.49a24.64,24.64,0,0,1,24.6-24.76,23.8,23.8,0,0,1,14.28,4.53,12.31,12.31,0,0,1,2.55,2l2.12,1.55,9.47-11.18-1.55-1.55a22.55,22.55,0,0,0-3.82-2.83,37,37,0,0,0-23.05-7.65,40.07,40.07,0,0,0-28.14,11.61c-7.49,7.92-11.73,17.69-11.73,28.3a40.08,40.08,0,0,0,39.87,39.92A38.86,38.86,0,0,0,1948,193l-2.83-4.25a32.74,32.74,0,0,1-18.52,5.66,35,35,0,0,1-34.78-35,35,35,0,0,1,34.78-34.81c6.93,0,13.57,2.12,20.22,6.51l1.13,1-3.11,3.54a2.31,2.31,0,0,1-1-.57,30.31,30.31,0,0,0-17.25-5.38,29.11,29.11,0,0,0-14.85,3.82,30.89,30.89,0,0,0-14.84,25.9,29.14,29.14,0,0,0,4.1,14.58c5.51,9.48,15.55,15.29,25.59,15.29,6.65,0,12-2,20.08-7.08l7.92,11.75c-10.32,6.79-18.38,9.62-28,9.62a43,43,0,0,1-22.06-5.94,44.19,44.19,0,0,1,22.06-82.51,43.61,43.61,0,0,1,29.84,11.6l.84.71,1.14,1.13L1962,125l-2-2a50.25,50.25,0,0,0-33.37-12.74,47.81,47.81,0,0,0-24.6,6.51,49.91,49.91,0,0,0-24.75,42.74,47.43,47.43,0,0,0,6.79,24.49,49.33,49.33,0,0,0,42.56,24.91c11.17,0,20.5-3.54,33.09-12.17l2-1.28-13.44-20.24-2.26,1.42Zm43.57-66.52h5.09v93.69h54.16V189.64h-39.88V176.05H2014v8.5h39.88v24.34h-64.34V110.1Zm9.62,0h54v24.2h-33.94v-5.09h28.85v-14h-43.83v40.9h32.94v5.09h-38V110.1Zm0,55.62h43V151.57h-33.23V119.44h34.22v5.1H2014v21.93h33.23v24.35h-43v23.49h39.59v5.1h-44.68V165.72Zm101.68,19.82c6.93,3.11,13,4.67,18.1,4.67,2.54,0,4.1-.15,4.8-.57a10.19,10.19,0,0,0,6.93-5.52l.14-.28a9.89,9.89,0,0,0,.15-8.35l-.29-.57c-1.83-3.82-5.94-6.37-13.43-8.77l-1.41-.43-.43-.14c-11.45-3.4-18.8-8.77-22.34-16.28A20.64,20.64,0,0,1,2091,140a27.81,27.81,0,0,1,2.12-10.47l.28-.57a24.57,24.57,0,0,1,15.42-12.87c4.95-.71,7.77-1.14,8.48-1.14,9.62,0,20.79,4,33.37,11.75l2.69-4.39c-13.72-8.35-25.6-12.45-35.92-12.45-4.1,0-7.49.42-9.9,1.41-8.34,2.27-14.56,7.36-18.66,15.43l-.42,1a31.94,31.94,0,0,0-2.55,12.31,25.46,25.46,0,0,0,2.55,11.61c4.38,8.77,12.86,15,25.59,18.82l1.7.57c5.79,1.84,9.19,3.82,10.46,6.08l.14.29a3,3,0,0,1,.42,1.7,5.35,5.35,0,0,1-.56,2.83q-1.49,3.39-7.21,3.39c-6.08,0-14.85-3.11-21.64-7.5l-2.12-1.27-12.44,20.1,2.12,1.27c10,6.79,23.33,11,34.08,11a35.33,35.33,0,0,0,9.75-1.28,29.59,29.59,0,0,0,18.67-15.56l.56-1a34.25,34.25,0,0,0,2.55-12.32c0-3.39-1.13-7.64-3.25-12.88-3.82-7.64-11.88-13.44-24.46-17.4l-2-.57a28.49,28.49,0,0,1-7.92-3.54,20.81,20.81,0,0,1-3.11-3l-.29-1.56a6.3,6.3,0,0,1,1-3.68c1.13-2.12,2.27-2.69,6.79-2.69,6.08,0,14.85,3.12,21.63,7.5l2.13,1.28,7.63-12.17-2.26-1.28c-8.63-5.66-20.36-9.62-29-9.62-3.82,0-6.22.28-7.49,1a20.76,20.76,0,0,0-13,10.9,18.31,18.31,0,0,0-1.84,8.77,17.73,17.73,0,0,0,1.7,7.64c3,6.37,9.61,11,19.94,14.16l1.83.56,3.82,1.42a61.44,61.44,0,0,1,6.93,3.4c4.52,2.68,6.79,6.51,6.79,11.6a16.94,16.94,0,0,1-2,7.93c-3,5.23-8.06,7.92-15.13,7.92-4.81,0-11.6-1.84-20.36-5.38l-2.41,4.11-.14.28c8.06,4.11,15.7,6.09,23,6.09a25,25,0,0,0,11.31-2.55c6.65-3.26,10.75-10.05,10.75-18.54,0-13.45-10.32-17.41-21.21-21.23l-1.84-.57c-8.91-2.69-14.42-6.36-16.69-11.32a12.46,12.46,0,0,1-1.27-5.66,13.61,13.61,0,0,1,1.42-6.65,16.15,16.15,0,0,1,9.75-8.07l5.66-.71c7.49,0,15.69,2.55,24.6,7.5l-2.26,3.54c-9.19-4.53-16.54-6.79-21.92-6.79-2.68,0-4.24.14-5,.57a10.64,10.64,0,0,0-6.93,5.66l-.14.28a10.62,10.62,0,0,0-1,5.1,6.8,6.8,0,0,0,.71,3.39c1.84,3.82,6.65,6.94,14.28,9.2l1.84.57,3.54,1.13c.42.14,2.68,1.13,6.78,3.11,5.52,3.12,9.48,7.08,11.74,11.75a20.64,20.64,0,0,1,2.12,9.34,22.7,22.7,0,0,1-2.26,10.62l-.29.56a24.55,24.55,0,0,1-15.41,12.88c-5,.71-7.78,1.13-8.48,1.13-7.21,0-16.55-2.69-25.17-6.79l-4-2.12,7.07-11.47,4,2.13Zm96.87,0c6.93,3.11,13,4.67,18.1,4.67,2.55,0,4.1-.15,4.81-.57a10.23,10.23,0,0,0,6.93-5.52l.14-.28a9.83,9.83,0,0,0,.14-8.35l-.28-.57c-1.84-3.82-5.94-6.37-13.43-8.77l-1.42-.43-.42-.14c-11.46-3.4-18.81-8.77-22.34-16.28a20.51,20.51,0,0,1-2.12-9.34,27.62,27.62,0,0,1,2.12-10.47l.28-.57a24.53,24.53,0,0,1,15.41-12.87c4.95-.71,7.78-1.14,8.49-1.14,9.61,0,20.78,4,33.37,11.75l2.68-4.39c-13.71-8.35-25.59-12.45-35.91-12.45-4.1,0-7.5.42-9.9,1.41-8.34,2.27-14.56,7.36-18.67,15.43l-.42,1a31.93,31.93,0,0,0-2.54,12.31,25.46,25.46,0,0,0,2.54,11.61c4.38,8.77,12.87,15,25.59,18.82l1.7.57c5.8,1.84,9.19,3.82,10.46,6.08l.15.29a3,3,0,0,1,.42,1.7,5.25,5.25,0,0,1-.57,2.83q-1.48,3.39-7.21,3.39c-6.08,0-14.84-3.11-21.63-7.5l-2.12-1.27-12.45,20.1,2.13,1.27c10,6.79,23.33,11,34.07,11a35.36,35.36,0,0,0,9.76-1.28,29.59,29.59,0,0,0,18.66-15.56l.57-1a34.23,34.23,0,0,0,2.54-12.32c0-3.39-1.13-7.64-3.25-12.88-3.82-7.64-11.88-13.44-24.46-17.4l-2-.57a28.64,28.64,0,0,1-7.92-3.54,21.93,21.93,0,0,1-3.11-3l-.28-1.56a6.23,6.23,0,0,1,1-3.68c1.13-2.12,2.26-2.69,6.79-2.69,6.08,0,14.84,3.12,21.63,7.5l2.12,1.28,7.64-12.17-2.27-1.28c-8.62-5.66-20.36-9.62-29-9.62-3.82,0-6.22.28-7.5,1a20.79,20.79,0,0,0-13,10.9,18.31,18.31,0,0,0-1.83,8.77,17.72,17.72,0,0,0,1.69,7.64c3,6.37,9.62,11,19.94,14.16l1.84.56,3.82,1.42a60.55,60.55,0,0,1,6.92,3.4c4.53,2.68,6.79,6.51,6.79,11.6a16.94,16.94,0,0,1-2,7.93c-3,5.23-8.06,7.92-15.13,7.92-4.8,0-11.59-1.84-20.36-5.38l-2.4,4.11-.14.28c8.06,4.11,15.69,6.09,23,6.09a25.1,25.1,0,0,0,11.32-2.55c6.64-3.26,10.74-10.05,10.74-18.54,0-13.45-10.32-17.41-21.21-21.23l-1.84-.57c-8.9-2.69-14.42-6.36-16.68-11.32a12.34,12.34,0,0,1-1.27-5.66,13.61,13.61,0,0,1,1.41-6.65,16.17,16.17,0,0,1,9.76-8.07l5.65-.71c7.5,0,15.7,2.55,24.61,7.5l-2.27,3.54c-9.19-4.53-16.54-6.79-21.91-6.79-2.69,0-4.24.14-5,.57a10.64,10.64,0,0,0-6.93,5.66l-.14.28a10.51,10.51,0,0,0-1,5.1,6.69,6.69,0,0,0,.71,3.39c1.83,3.82,6.64,6.94,14.28,9.2l1.84.57,3.53,1.13c.42.14,2.69,1.13,6.79,3.11,5.51,3.12,9.47,7.08,11.73,11.75a20.51,20.51,0,0,1,2.12,9.34,22.58,22.58,0,0,1-2.26,10.62l-.28.56a24.55,24.55,0,0,1-15.41,12.88c-5,.71-7.78,1.13-8.49,1.13-7.21,0-16.54-2.69-25.17-6.79l-3.95-2.12,7.07-11.47,3.95,2.13Z"/></g></g></svg>